<svg preserveAspectRatio="xMinYMid meet" width="224" height="357" viewBox="0 0 224 357" xmlns="http://www.w3.org/2000/svg"><title>Lightbulb Logo Black</title><desc>Created with Sketch.</desc><g fill="none"><path d="M4.549 261.673c5.085 54.013 43.555 91.866 107.45 91.866s102.365-37.853 107.45-91.866c3.98-54.677-16.172-71.722-40.271-106.919-7.738-11.068-10.58-23.243-13.676-34.754h-106.787c-3.095 11.511-7.304 23.686-15.043 34.754-24.32 35.197-43.105 52.242-39.125 106.919z" id="Shape" stroke="#000" stroke-width="6.5"/><path d="M174.013 253.108c-.179-.549-39.433-120.031-40.085-121.048-.652-1.017-6.318-.339-6.326 0-.009.339 34.775 112.179 34.775 112.179-8.575-4.282-19.293-6.117-28.174-3.364-1.837.612-3.675 1.529-5.206 2.447 0 0-7.806-4.324-14.854-4.341-7.048-.017-14.59 3.154-17.607 5.564-2.756-1.529-5.819-2.447-9.187-3.364-10.106-2.447-18.987-1.835-26.337 1.835 0 0 35.524-110.409 35.524-110.955 0-.546-5.772-.851-6.5 0-.728.851-39.13 118.907-39.13 118.907-.593 1.529-1.837 4.893-.306 6.117 1.531 1.223 3.675.918 4.9-.612 7.043-8.869 17.149-11.622 30.011-8.258 1.531.306 3.675.918 5.819 2.141-2.144 3.364-3.369 7.34-3.062 11.01.306 7.952 3.062 13.457 7.35 15.598 2.45 1.223 5.206 1.223 7.656-.306 3.675-2.447 5.512-8.258 4.9-15.598-.306-4.588-2.45-8.564-5.819-11.928 5.819-3.67 14.699-3.976 21.13-.612-2.45 3.364-3.675 7.646-3.981 12.54-.306 7.034 1.837 12.54 5.819 14.986 2.45 1.529 5.512 1.529 8.268.306 3.981-2.447 6.431-7.952 6.125-14.986 0-4.588-1.837-9.175-4.9-12.845l1.531-.612c5.834-1.831 13.119-.854 19.486 1.552 5.331 2.014 10.018 5.029 12.67 8.235 1.225 1.529 3.736 1.783 4.9.612 1.164-1.171.791-4.65.612-5.199zm-75.029 17.433h-.306c-.919-.612-3.062-3.364-3.369-9.481 0-2.447.612-4.893 1.837-7.034 2.144 1.835 3.369 4.282 3.675 7.34.612 5.505-.612 8.564-1.837 9.175zm30.93-.612h-.306s-.306 0-.612-.306c-.919-.612-2.756-3.058-2.45-8.564.306-3.364.919-6.117 2.45-8.564 2.144 2.447 3.369 5.199 3.369 8.258 0 6.117-1.531 8.564-2.45 9.175z" fill="#000"/><path d="M160.401 42.53c-.13-1.109-.309-2.301-.546-3.558-.952-5.048-2.618-10.092-5.161-14.775-7.211-13.281-19.926-21.196-39.983-21.196-20.09 0-33.244 7.953-41.123 21.291-2.776 4.699-4.687 9.756-5.883 14.815-.285 1.207-.514 2.353-.694 3.424h93.389zm-98.017 44.709v17.761h101.077v-17.761h-101.077zm4.227-30.871v17.761h94.032v-17.761h-94.032z" stroke="#000" stroke-width="6"/></g></svg>
